REM DIRINDEX 1\2\5,1\2\6,1\2\7,1\2\8,1\3\9,1\3\10,1\3\11,1\4\12,1\4\13,1\4\14,1\4\15,1\4\16
REM DIRNAME folder01,folder02,folder03,folder04,folder05,folder06,folder07,folder08,folder09,folder10,folder11,folder12,folder13,folder14,folder15,folder16
TITLE ""
FILE "1200_2_sec03_0711_0728.mp3" MP3
  TRACK 01 AUDIO
    TITLE "0:"
    INDEX 01 00:00:00
  TRACK 02 AUDIO
    TITLE "10:cjc034_01459"
    INDEX 01 00:00:15
  TRACK 03 AUDIO
    TITLE "0:"
    INDEX 01 00:01:09
  TRACK 04 AUDIO
    TITLE "9:cjc034_01460"
    INDEX 01 00:01:19
  TRACK 05 AUDIO
    TITLE "0:"
    INDEX 01 00:02:22
  TRACK 06 AUDIO
    TITLE "10:cjc034_01461"
    INDEX 01 00:03:08
  TRACK 07 AUDIO
    TITLE "0:"
    INDEX 01 00:04:07
  TRACK 08 AUDIO
    TITLE "9:cjc034_01462"
    INDEX 01 00:04:09
  TRACK 09 AUDIO
    TITLE "0:"
    INDEX 01 00:05:22
  TRACK 10 AUDIO
    TITLE "10:cjc034_01463"
    INDEX 01 00:06:06
  TRACK 11 AUDIO
    TITLE "0:"
    INDEX 01 00:07:19
  TRACK 12 AUDIO
    TITLE "9:cjc034_01464"
    INDEX 01 00:07:27
  TRACK 13 AUDIO
    TITLE "0:"
    INDEX 01 00:08:52
  TRACK 14 AUDIO
    TITLE "10:cjc034_01465"
    INDEX 01 00:09:34
  TRACK 15 AUDIO
    TITLE "0:"
    INDEX 01 00:10:47
  TRACK 16 AUDIO
    TITLE "9:cjc034_01466"
    INDEX 01 00:10:49
  TRACK 17 AUDIO
    TITLE "0:"
    INDEX 01 00:11:64
  TRACK 18 AUDIO
    TITLE "11:cjc034_01467"
    INDEX 01 00:13:37
  TRACK 19 AUDIO
    TITLE "0:"
    INDEX 01 00:18:46
  TRACK 20 AUDIO
    TITLE "10:cjc034_01468"
    INDEX 01 00:19:48
  TRACK 21 AUDIO
    TITLE "0:"
    INDEX 01 00:20:73
  TRACK 22 AUDIO
    TITLE "9:cjc034_01469"
    INDEX 01 00:21:04
  TRACK 23 AUDIO
    TITLE "0:"
    INDEX 01 00:22:23
  TRACK 24 AUDIO
    TITLE "10:cjc034_01470"
    INDEX 01 00:23:03
  TRACK 25 AUDIO
    TITLE "0:"
    INDEX 01 00:25:56
  TRACK 26 AUDIO
    TITLE "9:cjc034_01471"
    INDEX 01 00:25:66
  TRACK 27 AUDIO
    TITLE "0:"
    INDEX 01 00:27:14
  TRACK 28 AUDIO
    TITLE "10:cjc034_01472"
    INDEX 01 00:27:71
  TRACK 29 AUDIO
    TITLE "0:"
    INDEX 01 00:29:70
  TRACK 30 AUDIO
    TITLE "9:cjc034_01473"
    INDEX 01 00:30:01
  TRACK 31 AUDIO
    TITLE "0:"
    INDEX 01 00:31:16
  TRACK 32 AUDIO
    TITLE "10:cjc034_01474"
    INDEX 01 00:31:71
  TRACK 33 AUDIO
    TITLE "0:"
    INDEX 01 00:33:19
  TRACK 34 AUDIO
    TITLE "9:cjc034_01475"
    INDEX 01 00:33:26
  TRACK 35 AUDIO
    TITLE "0:"
    INDEX 01 00:34:42
  TRACK 36 AUDIO
    TITLE "10:cjc034_01476"
    INDEX 01 00:35:21
  TRACK 37 AUDIO
    TITLE "0:"
    INDEX 01 00:36:21
  TRACK 38 AUDIO
    TITLE "9:cjc034_01477"
    INDEX 01 00:36:23
  TRACK 39 AUDIO
    TITLE "0:"
    INDEX 01 00:37:22
  TRACK 40 AUDIO
    TITLE "10:cjc034_01478"
    INDEX 01 00:38:08
  TRACK 41 AUDIO
    TITLE "0:"
    INDEX 01 00:39:07
  TRACK 42 AUDIO
    TITLE "9:cjc034_01479"
    INDEX 01 00:39:11
  TRACK 43 AUDIO
    TITLE "0:"
    INDEX 01 00:40:19
  TRACK 44 AUDIO
    TITLE "10:cjc034_01480"
    INDEX 01 00:41:02
  TRACK 45 AUDIO
    TITLE "0:"
    INDEX 01 00:42:19
  TRACK 46 AUDIO
    TITLE "9:cjc034_01481"
    INDEX 01 00:42:29
  TRACK 47 AUDIO
    TITLE "0:"
    INDEX 01 00:43:31
  TRACK 48 AUDIO
    TITLE "10:cjc034_01482"
    INDEX 01 00:44:14
  TRACK 49 AUDIO
    TITLE "0:"
    INDEX 01 00:45:47
  TRACK 50 AUDIO
    TITLE "9:cjc034_01483"
    INDEX 01 00:45:53
  TRACK 51 AUDIO
    TITLE "0:"
    INDEX 01 00:46:56
  TRACK 52 AUDIO
    TITLE "10:cjc034_01484"
    INDEX 01 00:47:40
  TRACK 53 AUDIO
    TITLE "0:"
    INDEX 01 00:48:44
  TRACK 54 AUDIO
    TITLE "9:cjc034_01485"
    INDEX 01 00:48:48
  TRACK 55 AUDIO
    TITLE "0:"
    INDEX 01 00:49:72
  TRACK 56 AUDIO
    TITLE "10:cjc034_01486"
    INDEX 01 00:50:52
  TRACK 57 AUDIO
    TITLE "0:"
    INDEX 01 00:51:56
  TRACK 58 AUDIO
    TITLE "9:cjc034_01487"
    INDEX 01 00:51:60
  TRACK 59 AUDIO
    TITLE "0:"
    INDEX 01 00:52:61
  TRACK 60 AUDIO
    TITLE "10:cjc034_01488"
    INDEX 01 00:53:43
  TRACK 61 AUDIO
    TITLE "0:"
    INDEX 01 00:54:44
  TRACK 62 AUDIO
    TITLE "9:cjc034_01489"
    INDEX 01 00:54:48
  TRACK 63 AUDIO
    TITLE "0:"
    INDEX 01 00:55:46
  TRACK 64 AUDIO
    TITLE "10:cjc034_01490"
    INDEX 01 00:56:31
  TRACK 65 AUDIO
    TITLE "0:"
    INDEX 01 00:57:31
  TRACK 66 AUDIO
    TITLE "9:cjc034_01491"
    INDEX 01 00:57:37
  TRACK 67 AUDIO
    TITLE "0:"
    INDEX 01 00:58:46
  TRACK 68 AUDIO
    TITLE "10:cjc034_01492"
    INDEX 01 00:59:34
  TRACK 69 AUDIO
    TITLE "0:"
    INDEX 01 01:00:53
  TRACK 70 AUDIO
    TITLE "9:cjc034_01493"
    INDEX 01 01:00:55
  TRACK 71 AUDIO
    TITLE "0:"
    INDEX 01 01:01:58
  TRACK 72 AUDIO
    TITLE "10:cjc034_01494"
    INDEX 01 01:02:44
  TRACK 73 AUDIO
    TITLE "0:"
    INDEX 01 01:03:31
  TRACK 74 AUDIO
    TITLE "9:cjc034_01495"
    INDEX 01 01:03:35
  TRACK 75 AUDIO
    TITLE "0:"
    INDEX 01 01:04:48
